<svg width="1174" height="323" viewBox="0 0 1174 323" fill="none" xmlns="http://www.w3.org/2000/svg">
<g clip-path="url(#clip0_4_119)">
<path d="M390.349 47.4028C388.2 48.1761 385.954 49.5293 385.27 50.4959C384.293 51.7524 384 74.4669 384 159.139C384 218.003 384.293 266.911 384.586 267.781C385.856 270.874 391.033 272.421 401.68 272.904C413.5 273.387 421.509 272.034 424.733 269.038L426.98 267.008V159.042C426.98 37.8338 427.761 49.2393 419.654 47.0162C413.988 45.4697 395.136 45.7597 390.349 47.4028Z" fill="#166534"/>
<path d="M1143.23 56.886C1135.92 59.1075 1128.99 65.5791 1126.88 71.9541C1125.05 77.4598 1126.2 86.2496 1129.18 90.8859C1142.46 110.977 1174 102.09 1174 78.1359C1174 64.3235 1157.07 52.636 1143.23 56.886Z" fill="#166534"/>
<path d="M707.32 117.521C700.543 118.298 693.572 120.823 687.667 124.61C682.826 127.62 675.662 134.904 673.629 138.691C672.854 140.245 672.08 141.508 671.789 141.508C671.596 141.508 671.692 137.623 671.983 132.962C672.757 121.211 672.661 121.114 654.169 121.114C641.002 121.114 640.325 121.211 637.711 123.445L635 125.775V195.6C635 233.96 635.29 266.493 635.678 267.95C636.743 271.738 641.583 273 654.944 272.903C667.82 272.903 672.951 271.543 674.306 268.047C674.79 266.688 675.178 247.653 675.178 224.055C675.178 196.863 675.565 180.645 676.243 177.246C680.212 158.697 694.056 149.665 710.805 154.618C716.904 156.463 721.455 160.154 723.681 165.301C726.683 172.196 727.457 184.335 727.457 227.065C727.457 274.942 726.586 271.252 737.816 272.612C745.271 273.583 762.02 272.417 765.118 270.766C766.183 270.184 767.344 268.63 767.635 267.465C767.925 266.299 768.216 245.225 768.409 220.656C768.7 172.487 768.893 170.836 774.121 162.776C778.865 155.686 791.838 151.802 801.423 154.521C808.49 156.56 812.072 159.862 814.783 166.563C816.913 172.002 817.01 172.973 817.494 221.141L817.978 270.184L820.882 271.64C823.012 272.612 827.175 273 836.857 273C852.928 272.903 856.51 271.738 858.156 266.105C858.93 263.483 859.124 247.945 858.93 211.915C858.543 164.038 858.446 161.028 856.51 153.938C853.605 143.547 850.023 137.041 844.021 131.214C829.402 116.841 804.23 112.956 785.061 122.182C777.703 125.678 769.281 132.379 764.44 138.497L760.567 143.353L757.663 138.691C747.401 122.862 728.425 114.801 707.32 117.521Z" fill="#166534"/>
<path d="M954.77 117.538C942.948 119.183 930.254 127.407 923.761 137.566C922.404 139.694 922.308 139.307 922.598 132.438C923.083 121.311 923.083 121.311 904.671 121.311C890.136 121.311 889.651 121.408 887.423 123.73L885 126.052V196.584C885 262.472 885.097 267.31 886.744 269.245C889.264 272.438 899.826 273.792 912.23 272.534C927.54 270.986 926.087 276.211 926.765 220.675C927.056 188.941 927.637 172.977 928.412 170.655C932.192 159.238 939.653 153.82 951.378 153.82C962.619 153.82 969.596 159.044 972.309 169.494C973.181 173.17 974.441 233.737 974.15 266.246C974.15 271.083 977.833 272.244 994.015 272.244C1008.65 272.244 1013.49 271.083 1014.27 267.213C1014.56 265.955 1014.95 244.96 1015.14 220.482C1015.53 169.397 1015.72 167.752 1023.09 160.399C1028.61 154.981 1037.62 152.369 1045.37 154.11C1055.94 156.529 1060.59 162.334 1062.33 175.492C1062.82 179.459 1063.3 202.196 1063.3 225.9C1063.3 261.988 1063.49 269.245 1064.66 270.212C1067.86 272.921 1093.83 273.308 1100.22 270.793C1103.81 269.438 1104 266.633 1104 214.387C1103.9 157.98 1103.52 153.239 1098.19 142.693C1090.34 127.02 1073.67 117.441 1054.1 117.441C1038.88 117.441 1025.51 123.15 1013.98 134.566L1006.81 141.726L1005.35 139.501C1002.06 134.469 991.496 125.181 986.166 122.472C976.767 117.828 965.526 115.99 954.77 117.538Z" fill="#166534"/>
<path d="M521.206 118.452C476.366 123.967 444.862 165.766 452.013 210.37C457.425 244.138 484 270.746 517.92 276.164C527.778 277.809 544.109 276.938 552.903 274.326C600.739 260.199 624.512 207.661 603.059 163.444C594.554 146.028 578.416 131.031 560.151 123.58C548.941 119.13 533.189 117.001 521.206 118.452ZM540.63 156.574C559.668 161.702 572.618 182.408 569.718 203.307C567.882 216.563 558.798 229.431 547.105 235.14C541.79 237.655 540.437 237.946 531.16 237.946C522.269 237.946 520.336 237.559 515.504 235.333C490.282 223.626 483.614 189.568 502.362 168.282C512.025 157.348 526.618 152.897 540.63 156.574Z" fill="#166534"/>
<path d="M1134.2 122.725C1133.03 123.207 1131.66 124.459 1131.07 125.519C1129.71 128.023 1129.61 265.582 1130.98 268.183C1131.46 269.146 1133.32 270.398 1134.98 270.976C1138.88 272.325 1158.58 272.325 1163.36 271.072C1170.39 269.146 1170 273.577 1170 196.321C1170 129.275 1169.9 126.674 1168.14 124.555C1166.29 122.34 1165.7 122.243 1151.27 122.051C1143.07 121.858 1135.37 122.243 1134.2 122.725Z" fill="#166534"/>
<path d="M161.5 0C250.694 0 323 72.306 323 161.5C323 250.694 250.694 323 161.5 323C72.306 323 0 250.694 0 161.5C0 72.306 72.306 0 161.5 0ZM159.818 157.451C130.486 157.451 112.235 173.47 104.933 188.467C104.68 188.98 104.126 189.646 103.538 190.35C102.843 191.174 102.155 192.018 101.566 192.936C95.3978 202.524 92.2518 213.319 92.7158 223.33C93.2022 233.959 97.6561 242.496 105.235 247.366C108.298 249.332 111.602 250.321 115.069 250.321C122.218 250.321 128.763 246.298 136.348 241.639C141.17 238.669 146.151 235.606 151.684 233.312C152.304 233.108 154.845 232.796 159 232.796C163.941 232.796 167.49 233.236 168.248 233.497C173.649 235.879 178.392 239.004 182.979 242.021C190.012 246.652 196.653 251.022 203.858 251.022C206.95 251.022 209.948 250.207 212.775 248.602C228.375 239.747 231.346 215.452 219.403 194.448C218.804 193.394 218.089 192.411 217.372 191.445C216.757 190.608 216.167 189.818 215.852 189.139C209.143 174.792 190.755 157.879 160.965 157.458L159.818 157.451ZM82.3252 131.359C68.9566 131.36 58.4815 145.193 58.4814 162.853C58.4814 180.504 68.9566 194.34 82.3252 194.34C95.694 194.34 106.167 180.505 106.167 162.853C106.167 145.193 95.6934 131.359 82.3252 131.359ZM241.572 131.359C228.199 131.36 217.733 145.193 217.732 162.853C217.732 180.505 228.205 194.34 241.572 194.34C254.938 194.34 265.418 180.505 265.418 162.853C265.418 145.193 254.945 131.359 241.572 131.359ZM128.658 71.9775C112.289 71.9778 98.9697 89.9404 98.9697 112.018C98.9699 134.096 112.289 152.052 128.658 152.053C145.032 152.053 158.35 134.096 158.351 112.018C158.351 89.9407 145.032 71.9775 128.658 71.9775ZM192.993 71.9775C176.369 71.9777 162.85 89.9403 162.85 112.018C162.85 134.096 176.369 152.053 192.993 152.053C209.607 152.053 223.131 134.096 223.131 112.018C223.131 89.9407 209.607 71.9775 192.993 71.9775Z" fill="#22C55E"/>
</g>
<defs>
<clipPath id="clip0_4_119">
<rect width="1174" height="323" fill="white"/>
</clipPath>
</defs>
</svg>
