<svg width="323" height="323" viewBox="0 0 323 323" fill="none" xmlns="http://www.w3.org/2000/svg">
<path d="M161.5 0C250.694 0 323 72.306 323 161.5C323 250.694 250.694 323 161.5 323C72.306 323 0 250.694 0 161.5C0 72.306 72.306 0 161.5 0ZM159.818 157.451C130.486 157.451 112.235 173.47 104.933 188.467C104.68 188.98 104.126 189.646 103.538 190.35C102.843 191.174 102.155 192.018 101.566 192.936C95.3978 202.524 92.2518 213.319 92.7158 223.33C93.2022 233.959 97.6561 242.496 105.235 247.366C108.298 249.332 111.602 250.321 115.069 250.321C122.218 250.321 128.763 246.298 136.348 241.639C141.17 238.669 146.151 235.606 151.684 233.312C152.304 233.108 154.845 232.796 159 232.796C163.941 232.796 167.49 233.236 168.248 233.497C173.649 235.879 178.392 239.004 182.979 242.021C190.012 246.652 196.653 251.022 203.858 251.022C206.95 251.022 209.948 250.207 212.775 248.602C228.375 239.747 231.346 215.452 219.403 194.448C218.804 193.394 218.089 192.411 217.372 191.445C216.757 190.608 216.167 189.818 215.852 189.139C209.143 174.792 190.755 157.879 160.965 157.458L159.818 157.451ZM82.3252 131.359C68.9566 131.36 58.4815 145.193 58.4814 162.853C58.4814 180.504 68.9566 194.34 82.3252 194.34C95.694 194.34 106.167 180.505 106.167 162.853C106.167 145.193 95.6934 131.359 82.3252 131.359ZM241.572 131.359C228.199 131.36 217.733 145.193 217.732 162.853C217.732 180.505 228.205 194.34 241.572 194.34C254.938 194.34 265.418 180.505 265.418 162.853C265.418 145.193 254.945 131.359 241.572 131.359ZM128.658 71.9775C112.289 71.9778 98.9697 89.9404 98.9697 112.018C98.9699 134.096 112.289 152.052 128.658 152.053C145.032 152.053 158.35 134.096 158.351 112.018C158.351 89.9407 145.032 71.9775 128.658 71.9775ZM192.993 71.9775C176.369 71.9777 162.85 89.9403 162.85 112.018C162.85 134.096 176.369 152.053 192.993 152.053C209.607 152.053 223.131 134.096 223.131 112.018C223.131 89.9407 209.607 71.9775 192.993 71.9775Z" fill="#22C55E"/>
</svg>
